<?xml version="1.0" encoding="UTF-8" standalone="no"?>
<svg
   xmlns:dc="http://purl.org/dc/elements/1.1/"
   xmlns:cc="http://creativecommons.org/ns#"
   xmlns:rdf="http://www.w3.org/1999/02/22-rdf-syntax-ns#"
   xmlns:svg="http://www.w3.org/2000/svg"
   xmlns="http://www.w3.org/2000/svg"
   xmlns:sodipodi="http://sodipodi.sourceforge.net/DTD/sodipodi-0.dtd"
   xmlns:inkscape="http://www.inkscape.org/namespaces/inkscape"
   width="84"
   height="143"
   viewBox="0 0 84 143.00001"
   version="1.1"
   id="svg53"
   sodipodi:docname="vespalab-icon.svg"
   inkscape:version="0.92.4 (5da689c313, 2019-01-14)">
  <metadata
     id="metadata57">
    <rdf:RDF>
      <cc:Work
         rdf:about="">
        <dc:format>image/svg+xml</dc:format>
        <dc:type
           rdf:resource="http://purl.org/dc/dcmitype/StillImage" />
        <dc:title></dc:title>
      </cc:Work>
    </rdf:RDF>
  </metadata>
  <sodipodi:namedview
     pagecolor="#ffffff"
     bordercolor="#666666"
     borderopacity="1"
     objecttolerance="10"
     gridtolerance="10"
     guidetolerance="10"
     inkscape:pageopacity="0"
     inkscape:pageshadow="2"
     inkscape:window-width="1440"
     inkscape:window-height="877"
     id="namedview55"
     showgrid="false"
     inkscape:zoom="0.29308566"
     inkscape:cx="342.4623"
     inkscape:cy="-199.95667"
     inkscape:window-x="-8"
     inkscape:window-y="-8"
     inkscape:window-maximized="1"
     inkscape:current-layer="svg53" />
  <defs
     id="defs15">
    <style
       id="style2">.a{fill:#fff;}.b,.c,.e{fill:#777;}.b{font-size:25px;font-family:HelveticaNeue, Helvetica Neue;}.c{font-size:40px;font-family:FontAwesome5Free-Solid, &quot;Font Awesome 5 Free&quot;;}.d{fill:#0081c9;}.f{filter:url(#a);}</style>
    <filter
       id="a"
       x="0"
       y="0"
       width="1938"
       height="241"
       filterUnits="userSpaceOnUse">
      <feOffset
         dy="3"
         input="SourceAlpha"
         id="feOffset4" />
      <feGaussianBlur
         stdDeviation="3"
         result="b"
         id="feGaussianBlur6" />
      <feFlood
         flood-opacity="0.161"
         id="feFlood8" />
      <feComposite
         operator="in"
         in2="b"
         id="feComposite10"
         result="result1" />
      <feComposite
         in="SourceGraphic"
         in2="result1"
         id="feComposite12" />
    </filter>
  </defs>
  <g
     id="g49"
     transform="matrix(0.97467649,0,0,0.97467649,1.1820105,1.8551784)">
    <path
       style="fill:#777777"
       inkscape:connector-curvature="0"
       id="path43"
       transform="translate(-114.6,-39.407)"
       d="M 156.309,71.59 A 10.824,10.824 0 1 0 145.485,60.767 10.825,10.825 0 0 0 156.309,71.59 Z m 0,-16.394 a 2.31,2.31 0 1 1 0,-0.026 z m 0,0"
       class="e" />
    <path
       style="fill:#777777"
       inkscape:connector-curvature="0"
       id="path45"
       d="m 8.737,29.923 h 13.426 a 21.572,21.572 0 0 0 5.673,7.725 h -5.254 c -9.4,0 -19.442,5.1 -19.442,19.44 v 27.4 c 0.133,21.386 14.923,26.876 23.33,28.478 V 127.5 a 15.4085,15.4085 0 0 0 30.817,0 v -14.53 c 8.459,-1.472 23.2,-7.093 23.2,-28.478 V 57.01 c 0,-9.405 -5.1,-19.441 -19.442,-19.441 H 55.791 A 21.611,21.611 0 0 0 61.6,29.923 h 13.42 a 8.4855,8.4855 0 1 0 0,-16.971 H 61.6 a 21.464,21.464 0 0 0 -39.408,0 H 8.737 a 8.4855,8.4855 0 1 0 0,16.971 z m 43.3,97.575 a 10.1545,10.1545 0 0 1 -20.309,0 V 94.264 a 10.1545,10.1545 0 1 1 20.309,0 z m 9.012,-84.675 c 12.349,0 14.187,8.905 14.187,14.187 v 27.48 c 0,16.42 -10.194,21.6 -17.944,23.146 V 94.264 a 15.4085,15.4085 0 1 0 -30.817,0 v 13.373 C 18.589,106.06 8.527,100.884 8.527,84.49 V 57.01 c 0,-12.349 8.9,-14.187 14.186,-14.187 z m 13.976,-24.7 a 3.232,3.232 0 0 1 0,6.463 H 63.068 a 19.426,19.426 0 0 0 0,-6.463 z M 41.867,5.122 A 16.21,16.21 0 1 1 25.657,21.331 16.21,16.21 0 0 1 41.867,5.122 Z M 8.737,18.128 h 11.954 a 19.416,19.416 0 0 0 0,6.541 H 8.737 a 3.232,3.232 0 1 1 0,-6.463 z m 0,0"
       class="e" />
    <path
       style="fill:#777777"
       inkscape:connector-curvature="0"
       id="path47"
       transform="translate(-98.088,-223.88)"
       d="m 127.185,288.982 h 25.562 a 2.628,2.628 0 1 0 0,-5.255 h -25.562 a 2.628,2.628 0 0 0 0,5.255 z m 0,0"
       class="e" />
  </g>
</svg>
