<svg xmlns="http://www.w3.org/2000/svg" width="162.527" height="56.153" viewBox="0 0 162.527 56.153"><defs><style>.a,.b{fill:#777;}.a{fill-rule:evenodd;}</style></defs><g transform="translate(-286.358 -251.141)"><g transform="translate(286.358 251.141)"><path class="a" d="M448.622,275.048a9.809,9.809,0,0,1-1.716-2.6l-.064-.15a.369.369,0,0,0-.468-.128l-.112.048a15.144,15.144,0,0,1-2.337.62c-.042.007-1.4-.912-1.4-.912-.921-.559-1.87-1.139-2.838-1.661l-.194-.1-.177.135a4.394,4.394,0,0,0-.352.28,4.561,4.561,0,0,1-1.237.779,2.437,2.437,0,0,1-1.928-.31,2.821,2.821,0,0,1-1.33-2.466l1.4-6.236.019-.09s.14-.5-.177-.548l-.266.016c-1.789.12-3.658.1-5.465.082l-2.135-.014a1.429,1.429,0,0,0-1.144,1.321,2.859,2.859,0,0,1-.113.442l-.019-.007a14.722,14.722,0,0,0-4.229-1.738c-7.8-2.416-12.739,4.867-12.735,4.865a6.39,6.39,0,0,0-.845,1.276,7.113,7.113,0,0,1-1.087,1.449c-.37.229-6.141,3.8-6.173,3.814s-1.465-4.939-6.364-6.563c-5.562-1.461-11.29.254-16.15,4.826l-.062.057-.026.083c-.117.345-.432,1.9-.432,1.9-1.458.985-2.93,2.018-4.353,3.019-1.816,1.276-5.585,3.84-5.585,3.84a15.343,15.343,0,0,0-4.544-7.641,4.933,4.933,0,0,0-2.039-1.042l-.141-.011-.109.094s-19.661,16.978-19.647,16.967a5.639,5.639,0,0,1-4.468.668l7.588-6.6c-.006.007.511-.418.511-.418l.212-.174-.123-.245a14.6,14.6,0,0,0-1.778-2.9c-2.361-3.209-7.041-4.567-11.362-3.284-4.234,1.292-6.928,5.352-7.753,8.854-.009.046-16.3,10.64-16.3,10.532a19.38,19.38,0,0,1,1.456-7.021c2.33-5.9,8.709-10.405,14.523-10.26l.074,0a.733.733,0,0,0,.508-.364.858.858,0,0,0,.027-.722l-.053-.092a45.614,45.614,0,0,1-4.993-7.711l-.117-.219-.241.04a14.886,14.886,0,0,0-6.536,3.22c-6.214,5.153-9.551,12.288-9.948,21.234-.015.319-4.558-7.826-5.578-13.28a18.458,18.458,0,0,1,3.577-15.219,14,14,0,0,1,1.065-1.293,10.814,10.814,0,0,0,1.339-1.713l.13-.222-.176-.185a27.554,27.554,0,0,1-5.555-7.832c-.124-.276-.227-.568-.327-.851a7.94,7.94,0,0,0-.545-1.291l-.152-.261-.278.117a12,12,0,0,0-3.33,2.2c-5.037,4.721-7.407,10.382-7.048,16.829.56,9.723,5.6,19.107,15.069,28.44l-8.877,1.692-.2.05-.053.2a13.047,13.047,0,0,1-3.209,5.6l-.015.019-.014.017a.749.749,0,0,0-.183.637.507.507,0,0,0,.31.319l.09.035.1-.019,86.078-16.742-.523,3.534.4-.066c1.611-.255,3.221-.57,4.778-.877l2.1-.408.5-.112.059-.3.615-3.3,64.708-12.569.123-.025.256-.047c.514-.144.352-1.055.352-1.055Zm-21.384-.776a9.291,9.291,0,0,0,1.711,1.27l-2.625.5A3.952,3.952,0,0,0,427.238,274.271Zm-7.208-1.117a2.48,2.48,0,0,1-2.481.592,3.023,3.023,0,0,1-1.989-1.769l-.089-.279a2.467,2.467,0,0,1,.453-2.428,2.618,2.618,0,0,1,2.865-.391,3.428,3.428,0,0,1,1.547,1.585A2.643,2.643,0,0,1,420.03,273.155ZM399.137,281a5.275,5.275,0,0,0,2.114-2.7c.01-.039,6.342-4.273,6.342-4.273s1.386,3.826,3.4,4.763Zm-7.408-3.1a2.65,2.65,0,0,1-2.458,1,3.734,3.734,0,0,1-2.808-2.185,3.147,3.147,0,0,1,.543-3.4,3.211,3.211,0,0,1,3.439.018,5.018,5.018,0,0,1,1.5,1.817A3,3,0,0,1,391.729,277.9Zm-4.867,5.314-2.491.464c.03-.158.284-1.521.384-1.79A4.652,4.652,0,0,0,386.862,283.216Zm-9.528-3.845s-.056.441-.115.947c-.19,1.536-.8,4.778-.8,4.778-3.114.665-5.913,1.16-8.615,1.607,0,0,.444-1.1.754-1.7C368.555,285,375.792,280.352,377.334,279.371Zm-23.514,8.464.014.05a2.223,2.223,0,0,0,.935,1.184l-7.732,1.423,9.587-8.607.5.874c.007.03,1.462,2.452-1.795,3.072C354.536,286.09,353.55,286.415,353.82,287.835Zm-39.413,8.616,10.726-7a10.124,10.124,0,0,0,3.632,4.413Zm23.019-12.475-4.71,3.923s-.049.046-.1-.1a2.943,2.943,0,0,1,.069-2.663,3.649,3.649,0,0,1,3.963-1.495A2.655,2.655,0,0,1,337.426,283.976Z" transform="translate(-286.358 -251.141)"/></g><g transform="translate(442.24 261.722)"><g transform="translate(1.505 1.174)"><path class="a" d="M548.758,272.482a.89.89,0,0,0,.855-.913c0-.781-.733-.96-1.415-.96h-1.18v3.142h.654v-1.19h.432l.861,1.19h.852Zm-1.09-.344v-1.1h.508c.563,0,.77.2.77.549s-.25.549-.7.549Z" transform="translate(-547.017 -270.609)"/></g><path class="b" d="M544.841,271.409a2.427,2.427,0,1,1,2.427,2.425A2.429,2.429,0,0,1,544.841,271.409Zm2.427,2.742a2.743,2.743,0,1,0-2.743-2.742A2.745,2.745,0,0,0,547.268,274.151Z" transform="translate(-544.525 -268.665)"/></g></g></svg>