<svg xmlns="http://www.w3.org/2000/svg" xmlns:xlink="http://www.w3.org/1999/xlink" width="960.222" height="1080.237" viewBox="0 0 960.222 1080.237">
  <defs>
    <clipPath id="clip-path">
      <rect width="960.222" height="1080.237" fill="none"/>
    </clipPath>
  </defs>
  <g id="Repeat_Grid_1" data-name="Repeat Grid 1" clip-path="url(#clip-path)">
    <g>
      <path id="Path_8" data-name="Path 8" d="M0,0H960V1080H0Z" fill="#0081c9"/>
      <g id="Gruppe_195" data-name="Gruppe 195" transform="translate(-175.662 215.812) rotate(-25)">
        <g id="Gruppe_195-2" data-name="Gruppe 195" transform="translate(267.736 695.856)">
          <path id="Pfad_125" data-name="Pfad 125" d="M327.069,421.823a7.667,7.667,0,0,1-1.322-2.01l-.052-.118a.289.289,0,0,0-.362-.1h-.089a11.763,11.763,0,0,1-1.8.48l-1.086-.739c-.739-.429-1.478-.879-2.216-1.285l-.148-.081-.14.1c-.089.066-.185.14-.273.214a3.406,3.406,0,0,1-.96.606,1.874,1.874,0,0,1-1.478-.237,2.215,2.215,0,0,1-1.027-1.906l1.079-4.817v-.066s.111-.384-.133-.421h-.207c-1.382.089-2.822.074-4.219.059h-1.647a1.1,1.1,0,0,0-.879,1.019,2.2,2.2,0,0,1-.089.34h0a11.347,11.347,0,0,0-3.265-1.345,9.227,9.227,0,0,0-9.833,3.753,5.117,5.117,0,0,0-.65.982,5.558,5.558,0,0,1-.843,1.123l-4.765,2.955a8.3,8.3,0,0,0-4.913-5.068,13.077,13.077,0,0,0-12.471,3.694l-.044.045v.066c-.1.266-.332,1.478-.332,1.478-1.123.739-2.261,1.559-3.362,2.327-1.4.983-4.307,2.955-4.307,2.955a11.865,11.865,0,0,0-3.509-5.91,3.815,3.815,0,0,0-1.574-.805h-.111l-.089.074-15.167,13.1a4.354,4.354,0,0,1-3.45.517l5.859-5.1.391-.325.162-.133-.1-.192a11.181,11.181,0,0,0-1.374-2.216,8.127,8.127,0,0,0-8.77-2.534,9.435,9.435,0,0,0-5.984,6.834s-12.559,8.215-12.559,8.127a14.962,14.962,0,0,1,1.123-5.423,12.707,12.707,0,0,1,11.207-7.92h.059a.57.57,0,0,0,.392-.281.665.665,0,0,0,0-.562l-.037-.066a35.038,35.038,0,0,1-3.857-5.954l-.088-.17h-.185a11.475,11.475,0,0,0-5.046,2.483,21.552,21.552,0,0,0-7.676,16.394,37.308,37.308,0,0,1-4.307-10.255,14.244,14.244,0,0,1,2.756-11.754,10.612,10.612,0,0,1,.82-1,8.386,8.386,0,0,0,1.034-1.323l.1-.17-.14-.14a21.24,21.24,0,0,1-4.285-6.051,7,7,0,0,1-.251-.657,6.116,6.116,0,0,0-.421-1l-.118-.207-.214.089a9.323,9.323,0,0,0-2.571,1.7,15.98,15.98,0,0,0-5.437,13A33.985,33.985,0,0,0,213.45,439.96l-6.856,1.3-.155.037-.037.155a10.064,10.064,0,0,1-2.475,4.322h0a.577.577,0,0,0-.141.488.391.391,0,0,0,.244.244h.14l66.491-12.929-.4,2.726.31-.052c1.241-.2,2.49-.443,3.694-.68l1.618-.31.392-.089.044-.236.473-2.542,49.957-9.7h.3c.4-.111.273-.82.273-.82Zm-16.5-.6a7.155,7.155,0,0,0,1.322.975l-2.024.392a3.066,3.066,0,0,0,.694-1.367ZM305,420.36a1.922,1.922,0,0,1-1.914.458,2.34,2.34,0,0,1-1.537-1.367l-.067-.214a1.906,1.906,0,0,1,.355-1.876,2.024,2.024,0,0,1,2.216-.3,2.66,2.66,0,0,1,1.189,1.227,2.039,2.039,0,0,1-.251,2.075Zm-16.135,6.058a4.061,4.061,0,0,0,1.633-2.084l4.9-3.3s1.071,2.955,2.623,3.694Zm-5.718-2.394a2.038,2.038,0,0,1-1.9.739,2.889,2.889,0,0,1-2.165-1.685,2.43,2.43,0,0,1,.421-2.63,2.484,2.484,0,0,1,2.66,0,3.864,3.864,0,0,1,1.16,1.4,2.318,2.318,0,0,1-.214,2.172Zm-3.76,4.1-1.928.362a12.409,12.409,0,0,1,.3-1.382,3.591,3.591,0,0,0,1.662,1.02ZM272,425.169s-.044.34-.089.739c-.148,1.189-.62,3.694-.62,3.694-2.4.517-4.566.894-6.649,1.241,0,0,.34-.849.584-1.315Zm-18.152,6.539v.037a1.731,1.731,0,0,0,.739.916l-5.969,1.093L256,427.106l.384.672s1.13,1.891-1.389,2.371c-.576.2-1.337.443-1.13,1.544Zm-30.431,6.649,8.282-5.408a7.822,7.822,0,0,0,2.807,3.406Zm17.775-9.6-3.635,3.029-.081-.081a2.26,2.26,0,0,1,.052-2.054,2.822,2.822,0,0,1,3.058-1.152,2.116,2.116,0,0,1,.628.214Z" transform="translate(-201.793 -403.22)" fill="#5599bf" fill-rule="evenodd"/>
        </g>
        <path id="Pfad_126" data-name="Pfad 126" d="M626.232,496.6h99.175a62.692,62.692,0,1,0,0-125.383l-99.175,0a158.573,158.573,0,0,0-291.142,0H235.716a62.692,62.692,0,1,0,0,125.383l99.19,0a159.416,159.416,0,0,0,41.911,57.064H338.009c-69.446,0-143.635,37.678-143.635,143.62V899.71c.983,158,110.249,198.557,172.359,210.392v107.339a113.836,113.836,0,1,0,227.672,0V1110.132c62.494-10.867,171.4-52.395,171.4-210.392V696.721c0-69.483-37.678-143.628-143.635-143.628H583.36A159.69,159.69,0,0,0,626.232,496.6Zm10.875-87.14h88.3a23.874,23.874,0,1,1,0,47.748h-88.3a143.463,143.463,0,0,0,0-47.748ZM324.031,457.782H235.716a23.876,23.876,0,1,1,0-47.752v-.572h88.315A143.47,143.47,0,0,0,324.031,457.782Zm156.446-144.4a119.594,119.594,0,0,1,98.377,51.508H462.384c-37.811,0-54.072,14.894-54.072,39.156,0,22.9,15.515,36.637,48.974,36.637h30.5c20.959,0,35.07-.2,35.07,14.5,0,10-7.247,14.894-21.742,14.894H366.563A119.772,119.772,0,0,1,480.477,313.357ZM397.252,894.406a113.411,113.411,0,0,0-30.527,77.573v98.8c-58.231-11.651-132.561-49.883-132.561-171V696.758c0-91.233,65.752-104.812,104.8-104.812h77.684Zm158.322,323.072a75.02,75.02,0,0,1-150.04,0V971.942a75.02,75.02,0,1,1,150.04,0Zm-127.1-346.713L446.36,591.931h68.419l17.864,278.833a113.773,113.773,0,0,0-104.169,0ZM622.162,591.931c91.233,0,104.812,65.752,104.812,104.812V899.762c0,121.309-75.312,159.578-132.561,171v-98.82a113.418,113.418,0,0,0-30.527-77.572L544.463,591.9ZM480.484,552.908a119.682,119.682,0,0,1-101.953-56.931H498.57c37.811,0,54.271-14.695,54.271-40.552,0-23.708-16.652-35.654-48.76-35.654H473.392c-21.159,0-35.262,0-35.262-13.911a14.716,14.716,0,0,1,16.445-14.887H592.558A119.772,119.772,0,0,1,480.477,552.916Z" transform="translate(0 0)" fill="#5599bf"/>
        <g id="Gruppe_196" data-name="Gruppe 196" transform="translate(444.893 809.268)">
          <path id="Pfad_127" data-name="Pfad 127" d="M312.114,467.277h-41.7a14.816,14.816,0,1,1,0-29.633h41.7a14.816,14.816,0,0,1,0,29.633Z" transform="translate(-255.6 -437.644)" fill="#5599bf"/>
        </g>
      </g>
    </g>
  </g>
</svg>
