<svg xmlns="http://www.w3.org/2000/svg" width="530.803" height="183.403" viewBox="0 0 530.803 183.403">
  <g id="vespa-logo" transform="translate(-286.362 -251.135)">
    <g id="Group_5" data-name="Group 5" transform="translate(286.362 251.135)">
      <path id="Path_5" data-name="Path 5" d="M816.306,329.235a32.037,32.037,0,0,1-5.6-8.492l-.209-.49a1.205,1.205,0,0,0-1.528-.418l-.366.157a49.466,49.466,0,0,1-7.633,2.025c-.137.023-4.573-2.979-4.573-2.979-3.008-1.826-6.107-3.72-9.269-5.425l-.634-.327-.578.441a14.388,14.388,0,0,0-1.15.914,14.9,14.9,0,0,1-4.04,2.544,7.959,7.959,0,0,1-6.3-1.012,9.214,9.214,0,0,1-4.344-8.054l4.573-20.367.062-.294s.457-1.633-.578-1.79l-.869.052c-5.843.392-11.947.327-17.849.268l-6.973-.046a4.667,4.667,0,0,0-3.736,4.314,9.356,9.356,0,0,1-.369,1.444l-.062-.023A48.081,48.081,0,0,0,730.468,286c-25.475-7.891-41.606,15.9-41.593,15.889a20.866,20.866,0,0,0-2.76,4.167,23.234,23.234,0,0,1-3.55,4.732c-1.208.748-20.057,12.411-20.161,12.457s-4.785-16.131-20.785-21.435c-18.166-4.772-36.873.83-52.746,15.762l-.2.186-.085.271c-.382,1.127-1.411,6.205-1.411,6.205-4.762,3.217-9.569,6.591-14.217,9.86-5.931,4.167-18.241,12.541-18.241,12.541a50.111,50.111,0,0,0-14.841-24.956,16.111,16.111,0,0,0-6.659-3.4l-.461-.036-.356.307S468.188,374,468.234,373.966a18.417,18.417,0,0,1-14.593,2.182l24.783-21.556c-.02.023,1.669-1.365,1.669-1.365l.692-.568-.4-.8a47.682,47.682,0,0,0-5.807-9.471c-7.711-10.481-23-14.916-37.109-10.726-13.828,4.22-22.627,17.48-25.321,28.917-.029.15-53.236,34.75-53.236,34.4a63.3,63.3,0,0,1,4.755-22.931c7.61-19.269,28.444-33.983,47.432-33.509h.242A2.394,2.394,0,0,0,413,337.348a2.8,2.8,0,0,0,.088-2.358l-.173-.3a148.976,148.976,0,0,1-16.307-25.184l-.382-.715-.787.131a48.617,48.617,0,0,0-21.347,10.516C353.8,336.267,342.9,359.57,341.6,388.788c-.049,1.042-14.887-25.56-18.218-43.373a60.284,60.284,0,0,1,11.683-49.705,45.758,45.758,0,0,1,3.478-4.223,35.321,35.321,0,0,0,4.373-5.595l.424-.725-.575-.6a89.991,89.991,0,0,1-18.143-25.579c-.4-.9-.741-1.855-1.068-2.779a25.944,25.944,0,0,0-1.78-4.216l-.5-.852-.908.382A39.194,39.194,0,0,0,309.5,258.7c-16.451,15.419-24.191,33.908-23.019,54.964,1.829,31.755,18.29,62.4,49.215,92.885L306.7,412.077l-.653.163-.173.653a42.609,42.609,0,0,1-10.481,18.29l-.049.062-.046.056a2.446,2.446,0,0,0-.6,2.08,1.656,1.656,0,0,0,1.012,1.042l.294.114.327-.062L577.465,379.8l-1.708,11.542,1.306-.216c5.261-.833,10.52-1.862,15.6-2.864l6.859-1.333,1.633-.366.193-.98,2.009-10.778L814.7,333.752l.4-.082.836-.154c1.679-.47,1.15-3.446,1.15-3.446Zm-69.84-2.534a30.35,30.35,0,0,0,5.588,4.148l-8.573,1.633a12.908,12.908,0,0,0,2.985-5.784Zm-23.542-3.648a8.1,8.1,0,0,1-8.1,1.934,9.874,9.874,0,0,1-6.5-5.778l-.291-.911a8.058,8.058,0,0,1,1.479-7.93,8.55,8.55,0,0,1,9.357-1.277,11.2,11.2,0,0,1,5.053,5.176,8.632,8.632,0,0,1-1,8.786Zm-68.237,25.622a17.227,17.227,0,0,0,6.9-8.818c.033-.127,20.713-13.956,20.713-13.956s4.527,12.5,11.1,15.556Zm-24.195-10.125a8.655,8.655,0,0,1-8.028,3.266,12.2,12.2,0,0,1-9.171-7.136,10.278,10.278,0,0,1,1.774-11.1,10.487,10.487,0,0,1,11.232.059,16.389,16.389,0,0,1,4.9,5.934,9.8,9.8,0,0,1-.705,8.982Zm-15.9,17.356-8.136,1.515c.1-.516.927-4.968,1.254-5.846a15.192,15.192,0,0,0,6.882,4.337Zm-31.119-12.558s-.183,1.44-.376,3.093c-.62,5.017-2.613,15.605-2.613,15.605-10.17,2.172-19.312,3.789-28.136,5.248,0,0,1.45-3.593,2.463-5.552-.01,0,23.626-15.184,28.662-18.388Zm-76.8,27.643.046.163a7.26,7.26,0,0,0,3.054,3.867l-25.253,4.648,31.311-28.111,1.633,2.854c.023.1,4.775,8.008-5.863,10.033-2.59.853-5.81,1.914-4.928,6.552Zm-128.723,28.14,35.031-22.862a33.065,33.065,0,0,0,11.862,14.413Zm75.18-40.743L437.756,371.2s-.16.15-.327-.327a9.612,9.612,0,0,1,.225-8.7,11.917,11.917,0,0,1,12.943-4.883,8.67,8.67,0,0,1,2.541,1.1Z" transform="translate(-286.362 -251.135)" fill="#212121" fill-rule="evenodd"/>
    </g>
    <g id="Group_7" data-name="Group 7" transform="translate(795.462 285.712)">
      <g id="Group_6" data-name="Group 6" transform="translate(4.919 3.834)">
        <path id="Path_6" data-name="Path 6" d="M552.7,276.726a2.907,2.907,0,0,0,2.792-2.982c0-2.551-2.394-3.135-4.621-3.135h-3.854v10.262h2.136v-3.887h1.411l2.812,3.887h2.783Zm-3.56-1.124V272.01H550.8c1.839,0,2.515.653,2.515,1.793s-.817,1.793-2.286,1.793Z" transform="translate(-547.018 -270.609)" fill="#212121" fill-rule="evenodd"/>
      </g>
      <path id="Path_7" data-name="Path 7" d="M545.557,277.627a7.927,7.927,0,1,1,7.927,7.92A7.927,7.927,0,0,1,545.557,277.627Zm7.927,8.955a8.959,8.959,0,1,0-8.959-8.958,8.959,8.959,0,0,0,8.959,8.958Z" transform="translate(-544.525 -268.665)" fill="#212121"/>
    </g>
  </g>
</svg>
