<svg id="Group_6" data-name="Group 6" xmlns="http://www.w3.org/2000/svg" width="160" height="80" viewBox="0 0 160 80">
  <g id="Group_5" data-name="Group 5" transform="translate(7)">
    <g id="Gruppe_199" data-name="Gruppe 199" transform="translate(11.333 6.667)">
      <g id="Gruppe_195" data-name="Gruppe 195">
        <g id="Gruppe_195-2" data-name="Gruppe 195" transform="translate(5.924 26.291)">
          <path id="Pfad_125" data-name="Pfad 125" d="M209.629,404.384a.48.48,0,0,1-.083-.126l0-.007a.018.018,0,0,0-.023-.006h-.006a.735.735,0,0,1-.113.03l-.068-.046c-.046-.027-.092-.055-.139-.08l-.009-.005-.009.007-.017.013a.213.213,0,0,1-.06.038.117.117,0,0,1-.092-.015.139.139,0,0,1-.064-.119l.067-.3v0s.007-.024-.008-.026h-.013c-.086.005-.177,0-.264,0h-.1a.069.069,0,0,0-.055.064.138.138,0,0,1-.006.021h0a.708.708,0,0,0-.2-.084.577.577,0,0,0-.615.235.318.318,0,0,0-.041.061.349.349,0,0,1-.053.07l-.3.185a.519.519,0,0,0-.307-.317.818.818,0,0,0-.78.231l0,0v0c-.006.017-.021.092-.021.092-.07.046-.141.1-.21.146-.088.061-.269.185-.269.185a.742.742,0,0,0-.219-.37.239.239,0,0,0-.1-.05h-.007l-.006,0-.949.819a.272.272,0,0,1-.216.032l.366-.319.024-.02.01-.008-.006-.012a.7.7,0,0,0-.086-.139.508.508,0,0,0-.549-.158.59.59,0,0,0-.374.427s-.786.514-.786.508a.936.936,0,0,1,.07-.339.8.8,0,0,1,.7-.5h0a.036.036,0,0,0,.024-.018.042.042,0,0,0,0-.035l0,0a2.187,2.187,0,0,1-.241-.372l-.006-.011h-.012a.718.718,0,0,0-.316.155,1.348,1.348,0,0,0-.48,1.025,2.334,2.334,0,0,1-.269-.641.891.891,0,0,1,.172-.735.654.654,0,0,1,.051-.062.528.528,0,0,0,.065-.083l.006-.011-.009-.009a1.327,1.327,0,0,1-.268-.378.438.438,0,0,1-.016-.041.378.378,0,0,0-.026-.062l-.007-.013-.013.006a.584.584,0,0,0-.161.106,1,1,0,0,0-.34.813,2.126,2.126,0,0,0,.727,1.373l-.429.081-.01,0,0,.01a.63.63,0,0,1-.155.27h0a.036.036,0,0,0-.009.031.024.024,0,0,0,.015.015h.009l4.159-.809-.025.17.019,0c.078-.012.156-.028.231-.042l.1-.019.024-.006,0-.015.03-.159,3.125-.607h.018c.025-.007.017-.051.017-.051Zm-1.032-.037a.45.45,0,0,0,.083.061l-.127.025a.192.192,0,0,0,.043-.086Zm-.348-.054a.12.12,0,0,1-.12.029.146.146,0,0,1-.1-.085l0-.013a.119.119,0,0,1,.022-.117.126.126,0,0,1,.139-.019.166.166,0,0,1,.074.077.127.127,0,0,1-.016.13Zm-1.009.379a.254.254,0,0,0,.1-.13l.306-.207s.067.185.164.231Zm-.358-.15a.128.128,0,0,1-.119.046.181.181,0,0,1-.135-.105.152.152,0,0,1,.026-.164.155.155,0,0,1,.166,0,.242.242,0,0,1,.073.088.145.145,0,0,1-.013.136Zm-.235.256-.121.023a.773.773,0,0,1,.018-.086.224.224,0,0,0,.1.064Zm-.462-.185s0,.021-.006.046c-.009.074-.039.231-.039.231-.15.032-.286.056-.416.078,0,0,.021-.053.037-.082Zm-1.135.409v0a.108.108,0,0,0,.046.057l-.373.068.462-.416.024.042s.071.118-.087.148c-.036.012-.084.028-.071.1Zm-1.9.416.518-.338a.489.489,0,0,0,.176.213Zm1.112-.6-.227.189-.005-.005a.141.141,0,0,1,0-.128.177.177,0,0,1,.191-.072.134.134,0,0,1,.039.013Z" transform="translate(-201.793 -403.22)" fill-rule="evenodd"/>
        </g>
        <path id="Pfad_126" data-name="Pfad 126" d="M201.371,289.359h6.2a3.921,3.921,0,1,0,0-7.843h-6.2a9.919,9.919,0,0,0-18.211,0h-6.216a3.921,3.921,0,1,0,0,7.843h6.2a9.971,9.971,0,0,0,2.622,3.569h-2.427c-4.344,0-8.984,2.357-8.984,8.983v12.662c.061,9.883,6.9,12.42,10.781,13.16v6.714a7.12,7.12,0,0,0,14.241,0v-6.712c3.909-.68,10.721-3.277,10.721-13.16v-12.7c0-4.346-2.357-8.984-8.984-8.984h-2.427A9.989,9.989,0,0,0,201.371,289.359Zm.68-5.451h5.523a1.493,1.493,0,1,1,0,2.987h-5.523A8.973,8.973,0,0,0,202.051,283.908Zm-19.583,3.023h-5.524a1.493,1.493,0,1,1,0-2.987v-.036h5.524A8.974,8.974,0,0,0,182.469,286.931Zm9.786-9.032a7.481,7.481,0,0,1,6.153,3.222h-7.285c-2.365,0-3.382.932-3.382,2.449,0,1.432.97,2.292,3.063,2.292h1.908c1.311,0,2.194-.012,2.194.907,0,.625-.453.932-1.36.932h-8.416a7.492,7.492,0,0,1,7.125-9.8Zm-5.206,36.343a7.094,7.094,0,0,0-1.909,4.852v6.18c-3.642-.729-8.292-3.12-8.292-10.7v-12.7c0-5.707,4.113-6.556,6.555-6.556h4.859Zm9.9,20.208a4.692,4.692,0,0,1-9.385,0V319.091a4.692,4.692,0,0,1,9.385,0ZM189,312.763l1.119-17.441h4.28l1.117,17.441A7.116,7.116,0,0,0,189,312.763Zm12.115-17.441c5.707,0,6.556,4.113,6.556,6.556v12.7c0,7.588-4.711,9.982-8.292,10.7v-6.181a7.094,7.094,0,0,0-1.909-4.852l-1.215-18.919Zm-8.862-2.441a7.486,7.486,0,0,1-6.377-3.561h7.508c2.365,0,3.395-.919,3.395-2.536,0-1.483-1.042-2.23-3.05-2.23h-1.92c-1.323,0-2.206,0-2.206-.87a.921.921,0,0,1,1.029-.931h8.631a7.492,7.492,0,0,1-7.011,10.129Z" transform="translate(-173.023 -275.531)"/>
        <g id="Gruppe_196" data-name="Gruppe 196" transform="translate(17.005 33.385)">
          <path id="Pfad_127" data-name="Pfad 127" d="M259.135,439.5h-2.608a.927.927,0,0,1,0-1.854h2.608a.927.927,0,1,1,0,1.854Z" transform="translate(-255.6 -437.644)"/>
        </g>
      </g>
      <g id="Gruppe_197" data-name="Gruppe 197" transform="translate(57.764 2.774)">
        <g id="Gruppe_171" data-name="Gruppe 171">
          <path id="Pfad_120" data-name="Pfad 120" d="M339.772,259.012a3.228,3.228,0,0,1-.565-.855l-.021-.049a.121.121,0,0,0-.154-.042l-.037.016a4.986,4.986,0,0,1-.769.2c-.014,0-.462-.3-.462-.3-.3-.185-.616-.375-.934-.547l-.064-.034-.058.046a1.444,1.444,0,0,0-.116.092,1.5,1.5,0,0,1-.407.256.8.8,0,0,1-.634-.1.929.929,0,0,1-.438-.812l.462-2.053.006-.03s.046-.163-.058-.18l-.088.005c-.589.04-1.2.033-1.8.027l-.7,0a.47.47,0,0,0-.377.435.954.954,0,0,1-.037.146l-.006,0a4.847,4.847,0,0,0-1.392-.572c-2.566-.8-4.193,1.6-4.192,1.6a2.1,2.1,0,0,0-.277.42,2.346,2.346,0,0,1-.358.477c-.122.075-2.022,1.251-2.033,1.256a3.537,3.537,0,0,0-2.095-2.16,5.567,5.567,0,0,0-5.314,1.589l-.02.019-.009.027c-.038.114-.142.627-.142.627-.48.323-.964.664-1.433.994-.6.42-1.838,1.264-1.838,1.264a5.051,5.051,0,0,0-1.5-2.515,1.624,1.624,0,0,0-.671-.343l-.046,0-.036.031s-6.47,5.589-6.47,5.585a1.857,1.857,0,0,1-1.471.22l2.5-2.172.168-.139.07-.057-.041-.081a4.81,4.81,0,0,0-.585-.953,3.454,3.454,0,0,0-3.74-1.081,4.024,4.024,0,0,0-2.552,2.914c0,.015-5.364,3.5-5.364,3.466a6.383,6.383,0,0,1,.479-2.311,5.42,5.42,0,0,1,4.781-3.377h.024a.241.241,0,0,0,.167-.12.282.282,0,0,0,.009-.237l-.017-.031a15.013,15.013,0,0,1-1.644-2.538l-.038-.072-.079.013a4.9,4.9,0,0,0-2.151,1.06,9.2,9.2,0,0,0-3.275,6.99,15.948,15.948,0,0,1-1.836-4.372,6.075,6.075,0,0,1,1.177-5.01,4.627,4.627,0,0,1,.351-.426,3.565,3.565,0,0,0,.441-.564l.042-.073-.058-.061a9.071,9.071,0,0,1-1.829-2.578c-.041-.092-.075-.185-.108-.28a2.612,2.612,0,0,0-.179-.425l-.05-.086-.092.038a3.948,3.948,0,0,0-1.1.725,6.817,6.817,0,0,0-2.32,5.539c.185,3.2,1.842,6.29,4.96,9.361l-2.922.557-.066.016-.017.066a4.3,4.3,0,0,1-1.056,1.842l-.005.006,0,.006a.247.247,0,0,0-.06.21.167.167,0,0,0,.1.1l.03.012.032-.007,28.333-5.513-.172,1.163.133-.022c.53-.084,1.061-.188,1.571-.289l.69-.134.166-.037.019-.1.2-1.085,21.3-4.137.04-.008.084-.016c.169-.046.116-.347.116-.347Zm-7.039-.256a3.057,3.057,0,0,0,.563.416l-.864.166a1.3,1.3,0,0,0,.3-.582Zm-2.373-.37a.817.817,0,0,1-.817.2,1,1,0,0,1-.654-.582l-.03-.092a.812.812,0,0,1,.149-.8.862.862,0,0,1,.943-.128,1.128,1.128,0,0,1,.508.522.87.87,0,0,1-.1.888Zm-6.877,2.584a1.736,1.736,0,0,0,.7-.887c0-.013,2.087-1.406,2.087-1.406s.456,1.26,1.119,1.568Zm-2.439-1.021a.872.872,0,0,1-.809.329,1.229,1.229,0,0,1-.924-.719,1.036,1.036,0,0,1,.179-1.12,1.057,1.057,0,0,1,1.132.006,1.652,1.652,0,0,1,.494.6.988.988,0,0,1-.072.907Zm-1.6,1.749-.82.153c.01-.052.092-.5.127-.589a1.532,1.532,0,0,0,.693.439Zm-3.136-1.265s-.018.145-.038.311c-.062.506-.264,1.571-.264,1.571-1.025.219-1.946.382-2.836.529,0,0,.146-.361.248-.561,0,0,2.382-1.526,2.889-1.849Zm-7.74,2.786,0,.016a.733.733,0,0,0,.308.39l-2.545.468,3.156-2.833.164.287c0,.01.481.807-.591,1.011-.261.088-.585.2-.5.663Zm-12.974,2.836,3.531-2.3a3.332,3.332,0,0,0,1.2,1.453Zm7.579-4.106-1.55,1.292s-.016.015-.034-.034a.97.97,0,0,1,.023-.878,1.2,1.2,0,0,1,1.3-.492.875.875,0,0,1,.255.115Z" transform="translate(-286.36 -251.145)" fill-rule="evenodd"/>
        </g>
        <g id="Gruppe_179" data-name="Gruppe 179" transform="translate(51.311 2.095)">
          <g id="Gruppe_174" data-name="Gruppe 174" transform="translate(0.495 0.386)">
            <g id="Gruppe_173" data-name="Gruppe 173">
              <g id="Gruppe_172" data-name="Gruppe 172">
                <path id="Pfad_121" data-name="Pfad 121" d="M547.59,271.225a.293.293,0,0,0,.281-.3c0-.257-.241-.316-.466-.316h-.388v1.034h.215v-.391h.142l.283.392h.281Zm-.359-.113v-.361h.167c.185,0,.253.067.253.181s-.082.181-.231.181Z" transform="translate(-547.017 -270.609)" fill-rule="evenodd"/>
              </g>
            </g>
          </g>
          <g id="Gruppe_178" data-name="Gruppe 178" transform="translate(0 0)">
            <g id="Gruppe_177" data-name="Gruppe 177">
              <g id="Gruppe_176" data-name="Gruppe 176">
                <g id="Gruppe_175" data-name="Gruppe 175">
                  <path id="Pfad_122" data-name="Pfad 122" d="M544.629,269.568a.8.8,0,1,1,.8.8.8.8,0,0,1-.8-.8Zm.8.9a.9.9,0,1,0-.9-.9A.9.9,0,0,0,545.428,270.471Z" transform="translate(-544.525 -268.665)"/>
                </g>
              </g>
            </g>
          </g>
        </g>
      </g>
      <text id="LAB" transform="translate(43.667 54.333)" font-size="47" font-family="HelveticaNeue-CondensedBlack, Helvetica Neue" font-weight="800" letter-spacing="0.055em"><tspan x="0" y="0">LAB</tspan></text>
    </g>
    <rect id="Rectangle_1" data-name="Rectangle 1" width="147" height="80" fill="none"/>
  </g>
  <rect id="Rectangle_2" data-name="Rectangle 2" width="160" height="80" fill="none"/>
</svg>
