<svg xmlns="http://www.w3.org/2000/svg" width="187.636" height="40" viewBox="0 0 187.636 40">
  <g id="Group_1" data-name="Group 1" transform="translate(-26.956 -11)">
    <g id="Group_1-2" data-name="Group 1" transform="translate(21.956 11)">
      <g id="g49" transform="translate(5 0)">
        <path id="path43" d="M144.831,54.737a3.03,3.03,0,1,0-3.03-3.03,3.03,3.03,0,0,0,3.03,3.03Zm0-4.589a.647.647,0,1,1,0-.007Zm0,0" transform="translate(-133.227 -45.729)" fill="none" stroke="#212121" stroke-width="0.975"/>
        <path id="path45" d="M2.62,8.375H6.378a6.038,6.038,0,0,0,1.588,2.162H6.5c-2.631,0-5.442,1.427-5.442,5.441v7.669c.037,5.986,4.177,7.523,6.53,7.971v4.068a4.313,4.313,0,1,0,8.626,0V31.62c2.368-.412,6.494-1.985,6.494-7.971V15.957c0-2.632-1.427-5.442-5.442-5.442H15.791a6.049,6.049,0,0,0,1.626-2.14h3.756a2.375,2.375,0,0,0,0-4.75H17.417a6.008,6.008,0,0,0-11.03,0H2.62a2.375,2.375,0,1,0,0,4.75ZM14.74,35.687a2.842,2.842,0,0,1-5.684,0v-9.3a2.842,2.842,0,1,1,5.684,0Zm2.522-23.7c3.456,0,3.971,2.493,3.971,3.971v7.692c0,4.6-2.853,6.046-5.023,6.479V26.385a4.313,4.313,0,0,0-8.626,0v3.743c-2.207-.441-5.024-1.89-5.024-6.479V15.957c0-3.456,2.491-3.971,3.971-3.971Zm3.912-6.914a.9.9,0,1,1,0,1.809H17.827a5.437,5.437,0,0,0,0-1.809ZM11.893,1.434A4.537,4.537,0,1,1,7.356,5.971a4.537,4.537,0,0,1,4.537-4.537ZM2.62,5.074H5.966a5.434,5.434,0,0,0,0,1.831H2.62a.9.9,0,1,1,0-1.809Zm0,0" transform="translate(-0.245 0)" fill="#212121"/>
        <path id="path47" d="M122.139,278.014h7.155a.736.736,0,1,0,0-1.471h-7.155a.736.736,0,1,0,0,1.471Zm0,0" transform="translate(-114.065 -259.792)" fill="#212121"/>
      </g>
      <path id="Path_1" data-name="Path 1" d="M8.086-22.684,12.038-35.8h4L9.966-18.361H6.218L.171-35.8H4.158Zm21.8-3.233h-6.9v4.67h8.095v2.886H19.394V-35.8H31.058v2.91H22.987v4.155h6.9Zm14.062,2.982a1.843,1.843,0,0,0-.718-1.563,9.424,9.424,0,0,0-2.587-1.15,18.336,18.336,0,0,1-2.958-1.191q-2.97-1.6-2.97-4.323a4.21,4.21,0,0,1,.8-2.521,5.194,5.194,0,0,1,2.287-1.73,8.609,8.609,0,0,1,3.347-.623,7.836,7.836,0,0,1,3.329.677,5.3,5.3,0,0,1,2.269,1.91,5,5,0,0,1,.808,2.8H43.959a2.351,2.351,0,0,0-.754-1.862,3.1,3.1,0,0,0-2.12-.665,3.313,3.313,0,0,0-2.048.557,1.756,1.756,0,0,0-.73,1.467,1.682,1.682,0,0,0,.856,1.425,9.673,9.673,0,0,0,2.521,1.078A10.891,10.891,0,0,1,46.15-26.36a4.555,4.555,0,0,1,1.4,3.4,4.2,4.2,0,0,1-1.712,3.55,7.5,7.5,0,0,1-4.61,1.287,8.9,8.9,0,0,1-3.664-.736,5.8,5.8,0,0,1-2.521-2.018,5.167,5.167,0,0,1-.868-2.97h3.6q0,2.886,3.449,2.886a3.355,3.355,0,0,0,2-.521A1.7,1.7,0,0,0,43.947-22.935ZM55.291-24.5v6.143H51.7V-35.8h6.8a7.869,7.869,0,0,1,3.455.718,5.3,5.3,0,0,1,2.293,2.042,5.693,5.693,0,0,1,.8,3.012A5.006,5.006,0,0,1,63.3-25.982,7.307,7.307,0,0,1,58.44-24.5Zm0-2.91H58.5a3.155,3.155,0,0,0,2.173-.671A2.439,2.439,0,0,0,61.422-30a2.876,2.876,0,0,0-.754-2.072,2.818,2.818,0,0,0-2.084-.814H55.291Zm21.654,5.46h-6.3l-1.2,3.592h-3.82L72.119-35.8h3.329l6.526,17.435h-3.82Zm-5.329-2.91h4.359l-2.191-6.526Zm17.3,3.616H96.54v2.886H85.32V-35.8h3.592Zm21.475-.706h-6.3l-1.2,3.592h-3.82l6.49-17.435h3.329l6.526,17.435H111.6Zm-5.329-2.91h4.359l-2.191-6.526Zm13.7,6.5V-35.8h6.107a8.019,8.019,0,0,1,4.814,1.215,4.156,4.156,0,0,1,1.641,3.562,3.939,3.939,0,0,1-.659,2.257,3.8,3.8,0,0,1-1.832,1.431,3.681,3.681,0,0,1,2.114,1.353,4,4,0,0,1,.772,2.491,4.6,4.6,0,0,1-1.6,3.808,7.224,7.224,0,0,1-4.574,1.317Zm3.592-7.592v4.706h3.077a2.97,2.97,0,0,0,1.982-.6,2.074,2.074,0,0,0,.712-1.67,2.189,2.189,0,0,0-2.479-2.431Zm0-2.539h2.658q2.718-.048,2.718-2.167a2,2,0,0,0-.689-1.706,3.621,3.621,0,0,0-2.173-.521h-2.515Z" transform="translate(38.755 50.63)" fill="#212121"/>
    </g>
    <path id="Path_2" data-name="Path 2" d="M1.23-8.323a.7.7,0,0,1,.223-.536.79.79,0,0,1,.558-.206.8.8,0,0,1,.563.206.7.7,0,0,1,.223.536.687.687,0,0,1-.22.529.8.8,0,0,1-.565.2.794.794,0,0,1-.56-.2A.687.687,0,0,1,1.23-8.323Zm5.62-.34a.908.908,0,0,0,.623-.211.738.738,0,0,0,.249-.56h1.3a1.776,1.776,0,0,1-.287.965,1.9,1.9,0,0,1-.774.68,2.421,2.421,0,0,1-1.085.242,2.25,2.25,0,0,1-1.753-.707,2.8,2.8,0,0,1-.642-1.952V-10.3a2.764,2.764,0,0,1,.637-1.911,2.224,2.224,0,0,1,1.748-.714,2.18,2.18,0,0,1,1.559.553,1.959,1.959,0,0,1,.6,1.473h-1.3a.943.943,0,0,0-.249-.654.833.833,0,0,0-.632-.251.834.834,0,0,0-.73.352,2.038,2.038,0,0,0-.247,1.142v.144a2.064,2.064,0,0,0,.244,1.15A.845.845,0,0,0,6.851-8.663Zm5-3.6a1.728,1.728,0,0,1,1.384-.661q1.686,0,1.71,1.959v3.319H13.558v-3.281a.963.963,0,0,0-.192-.659.821.821,0,0,0-.637-.213.942.942,0,0,0-.881.469v3.683H10.464V-15h1.384Z" transform="translate(199.649 50.895)" fill="#212121"/>
  </g>
</svg>
