<svg xmlns="http://www.w3.org/2000/svg" width="391.429" height="60.708" viewBox="0 0 391.429 60.708">
  <g id="Group_3" data-name="Group 3" transform="translate(-9.815 -10)">
    <g id="Group_2" data-name="Group 2" transform="translate(-12.141 -1)">
      <g id="Group_1" data-name="Group 1" transform="translate(21.956 11)">
        <g id="g49" transform="translate(0 0)">
          <path id="path43" d="M146.4,57.874a4.6,4.6,0,1,0-4.6-4.6,4.6,4.6,0,0,0,4.6,4.6Zm0-6.964a.981.981,0,1,1,0-.011Zm0,0" transform="translate(-128.788 -44.202)" fill="none" stroke="#212121" stroke-width="0.975"/>
          <path id="path45" d="M3.85,12.711h5.7a9.164,9.164,0,0,0,2.41,3.282H9.731c-3.993,0-8.259,2.166-8.259,8.258v11.64c.056,9.085,6.339,11.417,9.911,12.1v6.174a6.546,6.546,0,1,0,13.091,0V47.99c3.593-.625,9.855-3.013,9.855-12.1V24.218c0-4-2.166-8.259-8.259-8.259H23.838a9.18,9.18,0,0,0,2.468-3.248h5.7a3.6,3.6,0,0,0,0-7.209h-5.7a9.118,9.118,0,0,0-16.741,0H3.85a3.6,3.6,0,0,0,0,7.209Zm18.394,41.45a4.314,4.314,0,0,1-8.627,0V40.043a4.314,4.314,0,1,1,8.627,0Zm3.828-35.97c5.246,0,6.027,3.783,6.027,6.027V35.891c0,6.975-4.33,9.176-7.623,9.832v-5.68a6.546,6.546,0,0,0-13.091,0v5.681c-3.35-.67-7.624-2.869-7.624-9.833V24.218c0-5.246,3.781-6.027,6.026-6.027ZM32.009,7.7a1.373,1.373,0,1,1,0,2.746H26.93a8.252,8.252,0,0,0,0-2.745ZM17.923,2.176a6.886,6.886,0,1,1-6.886,6.886,6.886,6.886,0,0,1,6.886-6.886ZM3.85,7.7H8.928a8.248,8.248,0,0,0,0,2.779H3.85a1.373,1.373,0,1,1,0-2.746Zm0,0" transform="translate(-0.245 0)" fill="#212121"/>
          <path id="path47" d="M122.52,278.775h10.859a1.116,1.116,0,1,0,0-2.233H122.52a1.116,1.116,0,1,0,0,2.233Zm0,0" transform="translate(-110.266 -251.12)" fill="#212121"/>
        </g>
        <path id="Path_1" data-name="Path 1" d="M17.285-7.166l8.544-28.351h8.648L21.35,2.181h-8.1L.171-35.517H8.793Zm47.132-6.991H49.5v10.1h17.5v6.24H41.736v-37.7H66.954v6.292H49.5v8.984H64.417ZM94.823-7.71a3.986,3.986,0,0,0-1.553-3.379,20.376,20.376,0,0,0-5.593-2.486,39.645,39.645,0,0,1-6.4-2.576Q74.86-19.62,74.86-25.5a9.1,9.1,0,0,1,1.722-5.45,11.231,11.231,0,0,1,4.945-3.741,18.613,18.613,0,0,1,7.237-1.346,16.942,16.942,0,0,1,7.2,1.463,11.461,11.461,0,0,1,4.906,4.13,10.806,10.806,0,0,1,1.748,6.059H94.848a5.083,5.083,0,0,0-1.631-4.026,6.705,6.705,0,0,0-4.583-1.437,7.164,7.164,0,0,0-4.427,1.2,3.8,3.8,0,0,0-1.579,3.172,3.637,3.637,0,0,0,1.851,3.081,20.915,20.915,0,0,0,5.45,2.33q6.628,1.994,9.657,4.945a9.849,9.849,0,0,1,3.029,7.353,9.072,9.072,0,0,1-3.7,7.677Q95.211,2.7,88.945,2.7a19.249,19.249,0,0,1-7.923-1.592,12.537,12.537,0,0,1-5.45-4.363A11.172,11.172,0,0,1,73.7-9.678h7.793q0,6.24,7.457,6.24a7.254,7.254,0,0,0,4.324-1.126A3.664,3.664,0,0,0,94.823-7.71ZM119.351-11.1V2.181h-7.767v-37.7H126.29a17.014,17.014,0,0,1,7.47,1.553,11.448,11.448,0,0,1,4.958,4.414,12.309,12.309,0,0,1,1.735,6.512,10.824,10.824,0,0,1-3.793,8.738q-3.793,3.2-10.5,3.2Zm0-6.292h6.939a6.823,6.823,0,0,0,4.7-1.45,5.273,5.273,0,0,0,1.618-4.143,6.218,6.218,0,0,0-1.631-4.479,6.093,6.093,0,0,0-4.505-1.761h-7.12ZM166.172-5.587H152.553l-2.589,7.767H141.7l14.033-37.7h7.2l14.111,37.7h-8.259ZM154.65-11.878h9.424l-4.738-14.111Zm37.4,7.819H208.54v6.24h-24.26v-37.7h7.767Zm46.433-1.528H224.86l-2.589,7.767h-8.259l14.033-37.7h7.2l14.111,37.7h-8.259Zm-11.522-6.292h9.424l-4.738-14.111ZM256.587,2.181v-37.7h13.2q6.861,0,10.408,2.628a8.986,8.986,0,0,1,3.547,7.7,8.517,8.517,0,0,1-1.424,4.881,8.225,8.225,0,0,1-3.961,3.094,7.958,7.958,0,0,1,4.57,2.926A8.65,8.65,0,0,1,284.6-8.9q0,5.437-3.469,8.233t-9.891,2.848Zm7.767-16.415V-4.059h6.654a6.421,6.421,0,0,0,4.285-1.308,4.484,4.484,0,0,0,1.541-3.612q0-5.178-5.359-5.256Zm0-5.489H270.1q5.877-.1,5.877-4.686a4.331,4.331,0,0,0-1.489-3.69,7.83,7.83,0,0,0-4.7-1.126h-5.437Z" transform="translate(58.906 46.64)" fill="#212121"/>
      </g>
      <path id="Path_2" data-name="Path 2" d="M1.23-.563a1.507,1.507,0,0,1,.482-1.16,1.709,1.709,0,0,1,1.207-.445,1.723,1.723,0,0,1,1.217.445,1.507,1.507,0,0,1,.482,1.16A1.486,1.486,0,0,1,4.141.581a1.73,1.73,0,0,1-1.222.44A1.716,1.716,0,0,1,1.707.581,1.486,1.486,0,0,1,1.23-.563ZM13.382-1.3a1.963,1.963,0,0,0,1.346-.456,1.6,1.6,0,0,0,.539-1.212h2.807a3.839,3.839,0,0,1-.621,2.087A4.1,4.1,0,0,1,15.78.592a5.235,5.235,0,0,1-2.346.523A4.865,4.865,0,0,1,9.644-.413a6.045,6.045,0,0,1-1.388-4.22v-.2A5.976,5.976,0,0,1,9.633-8.962a4.808,4.808,0,0,1,3.78-1.543,4.713,4.713,0,0,1,3.371,1.2,4.235,4.235,0,0,1,1.289,3.185H15.267a2.04,2.04,0,0,0-.539-1.414,1.8,1.8,0,0,0-1.367-.544,1.8,1.8,0,0,0-1.579.761,4.406,4.406,0,0,0-.533,2.47v.311a4.462,4.462,0,0,0,.528,2.486A1.826,1.826,0,0,0,13.382-1.3ZM24.188-9.076a3.736,3.736,0,0,1,2.993-1.429q3.646,0,3.7,4.236V.908H27.885V-6.187a2.082,2.082,0,0,0-.414-1.424,1.776,1.776,0,0,0-1.377-.461,2.037,2.037,0,0,0-1.906,1.015V.908H21.2V-15h2.993Z" transform="translate(382.506 58.876)" fill="#212121"/>
    </g>
  </g>
</svg>
